<svg width="210" height="51" viewBox="0 0 210 51" fill="none" xmlns="http://www.w3.org/2000/svg">
<path d="M9.125 14.1562V32.0938H18.0938C19.3229 32.0938 20.4792 31.8646 21.5625 31.4062C22.6458 30.9271 23.5938 30.2812 24.4062 29.4688C25.2188 28.6562 25.8542 27.7083 26.3125 26.625C26.7917 25.5208 27.0312 24.3542 27.0312 23.125C27.0312 21.8958 26.7917 20.7396 26.3125 19.6562C25.8542 18.5521 25.2188 17.5938 24.4062 16.7812C23.5938 15.9688 22.6458 15.3333 21.5625 14.875C20.4792 14.3958 19.3229 14.1562 18.0938 14.1562H9.125ZM9.125 50H0.15625V5.1875H18.0938C19.7396 5.1875 21.3229 5.40625 22.8438 5.84375C24.3646 6.26042 25.7812 6.86458 27.0938 7.65625C28.4271 8.42708 29.6354 9.36458 30.7188 10.4688C31.8229 11.5521 32.7604 12.7604 33.5312 14.0938C34.3229 15.4271 34.9271 16.8542 35.3438 18.375C35.7812 19.8958 36 21.4792 36 23.125C36 24.6667 35.8021 26.1667 35.4062 27.625C35.0312 29.0833 34.4792 30.4688 33.75 31.7812C33.0417 33.0938 32.1667 34.3021 31.125 35.4062C30.0833 36.5104 28.9167 37.4688 27.625 38.2812L32.5938 50H23.0625L19.1562 40.9688L9.125 41.0312V50ZM73.0312 50H70.9688L67.6562 45.4062C66.8438 46.1354 65.9792 46.8229 65.0625 47.4688C64.1667 48.0938 63.2188 48.6458 62.2188 49.125C61.2188 49.5833 60.1875 49.9479 59.125 50.2188C58.0833 50.4896 57.0208 50.625 55.9375 50.625C53.5833 50.625 51.3646 50.2292 49.2812 49.4375C47.2188 48.6458 45.4062 47.5 43.8438 46C42.3021 44.4792 41.0833 42.625 40.1875 40.4375C39.2917 38.25 38.8438 35.7604 38.8438 32.9688C38.8438 30.3646 39.2917 27.9792 40.1875 25.8125C41.0833 23.625 42.3021 21.75 43.8438 20.1875C45.4062 18.625 47.2188 17.4167 49.2812 16.5625C51.3646 15.6875 53.5833 15.25 55.9375 15.25C57.0208 15.25 58.0938 15.3854 59.1562 15.6562C60.2188 15.9271 61.25 16.3021 62.25 16.7812C63.25 17.2604 64.1979 17.8229 65.0938 18.4688C66.0104 19.1146 66.8646 19.8125 67.6562 20.5625L70.9688 16.5938H73.0312V50ZM64.4375 32.9688C64.4375 31.8021 64.2083 30.6771 63.75 29.5938C63.3125 28.4896 62.7083 27.5208 61.9375 26.6875C61.1667 25.8333 60.2604 25.1562 59.2188 24.6562C58.1979 24.1354 57.1042 23.875 55.9375 23.875C54.7708 23.875 53.6667 24.0729 52.625 24.4688C51.6042 24.8646 50.7083 25.4479 49.9375 26.2188C49.1875 26.9896 48.5938 27.9479 48.1562 29.0938C47.7188 30.2188 47.5 31.5104 47.5 32.9688C47.5 34.4271 47.7188 35.7292 48.1562 36.875C48.5938 38 49.1875 38.9479 49.9375 39.7188C50.7083 40.4896 51.6042 41.0729 52.625 41.4688C53.6667 41.8646 54.7708 42.0625 55.9375 42.0625C57.1042 42.0625 58.1979 41.8125 59.2188 41.3125C60.2604 40.7917 61.1667 40.1146 61.9375 39.2812C62.7083 38.4271 63.3125 37.4583 63.75 36.375C64.2083 35.2708 64.4375 34.1354 64.4375 32.9688ZM111.906 50H109.844L106.531 45.4062C105.719 46.1354 104.854 46.8229 103.938 47.4688C103.042 48.0938 102.094 48.6458 101.094 49.125C100.094 49.5833 99.0625 49.9479 98 50.2188C96.9583 50.4896 95.8958 50.625 94.8125 50.625C92.4583 50.625 90.2396 50.1875 88.1562 49.3125C86.0938 48.4167 84.2812 47.1875 82.7188 45.625C81.1771 44.0417 79.9583 42.1771 79.0625 40.0312C78.1667 37.8646 77.7188 35.5104 77.7188 32.9688C77.7188 30.4479 78.1667 28.1042 79.0625 25.9375C79.9583 23.7708 81.1771 21.8958 82.7188 20.3125C84.2812 18.7292 86.0938 17.4896 88.1562 16.5938C90.2396 15.6979 92.4583 15.25 94.8125 15.25C95.5625 15.25 96.3333 15.3125 97.125 15.4375C97.9375 15.5625 98.7188 15.7708 99.4688 16.0625C100.24 16.3333 100.958 16.6979 101.625 17.1562C102.292 17.6146 102.854 18.1771 103.312 18.8438V3.21875H111.906V50ZM103.312 32.9688C103.312 31.8021 103.083 30.6771 102.625 29.5938C102.188 28.4896 101.583 27.5208 100.812 26.6875C100.042 25.8333 99.1354 25.1562 98.0938 24.6562C97.0729 24.1354 95.9792 23.875 94.8125 23.875C93.6458 23.875 92.5417 24.0833 91.5 24.5C90.4792 24.9167 89.5833 25.5208 88.8125 26.3125C88.0625 27.0833 87.4688 28.0312 87.0312 29.1562C86.5938 30.2812 86.375 31.5521 86.375 32.9688C86.375 34.1979 86.5938 35.3646 87.0312 36.4688C87.4688 37.5729 88.0625 38.5417 88.8125 39.375C89.5833 40.2083 90.4792 40.8646 91.5 41.3438C92.5417 41.8229 93.6458 42.0625 94.8125 42.0625C95.9792 42.0625 97.0729 41.8125 98.0938 41.3125C99.1354 40.7917 100.042 40.1146 100.812 39.2812C101.583 38.4271 102.188 37.4583 102.625 36.375C103.083 35.2708 103.312 34.1354 103.312 32.9688ZM131.75 41.8125C132.083 41.9167 132.417 41.9896 132.75 42.0312C133.083 42.0521 133.417 42.0625 133.75 42.0625C134.583 42.0625 135.385 41.9479 136.156 41.7188C136.927 41.4896 137.646 41.1667 138.312 40.75C139 40.3125 139.604 39.7917 140.125 39.1875C140.667 38.5625 141.104 37.875 141.438 37.125L147.688 43.4062C146.896 44.5312 145.979 45.5417 144.938 46.4375C143.917 47.3333 142.802 48.0938 141.594 48.7188C140.406 49.3438 139.146 49.8125 137.812 50.125C136.5 50.4583 135.146 50.625 133.75 50.625C131.396 50.625 129.177 50.1875 127.094 49.3125C125.031 48.4375 123.219 47.2188 121.656 45.6562C120.115 44.0938 118.896 42.2396 118 40.0938C117.104 37.9271 116.656 35.5521 116.656 32.9688C116.656 30.3229 117.104 27.9062 118 25.7188C118.896 23.5312 120.115 21.6667 121.656 20.125C123.219 18.5833 125.031 17.3854 127.094 16.5312C129.177 15.6771 131.396 15.25 133.75 15.25C135.146 15.25 136.51 15.4167 137.844 15.75C139.177 16.0833 140.438 16.5625 141.625 17.1875C142.833 17.8125 143.958 18.5833 145 19.5C146.042 20.3958 146.958 21.4062 147.75 22.5312L131.75 41.8125ZM136.125 24.2188C135.729 24.0729 135.333 23.9792 134.938 23.9375C134.562 23.8958 134.167 23.875 133.75 23.875C132.583 23.875 131.479 24.0938 130.438 24.5312C129.417 24.9479 128.521 25.5521 127.75 26.3438C127 27.1354 126.406 28.0938 125.969 29.2188C125.531 30.3229 125.312 31.5729 125.312 32.9688C125.312 33.2812 125.323 33.6354 125.344 34.0312C125.385 34.4271 125.438 34.8333 125.5 35.25C125.583 35.6458 125.677 36.0312 125.781 36.4062C125.885 36.7812 126.021 37.1146 126.188 37.4062L136.125 24.2188ZM165.125 41.8125C165.458 41.9167 165.792 41.9896 166.125 42.0312C166.458 42.0521 166.792 42.0625 167.125 42.0625C167.958 42.0625 168.76 41.9479 169.531 41.7188C170.302 41.4896 171.021 41.1667 171.688 40.75C172.375 40.3125 172.979 39.7917 173.5 39.1875C174.042 38.5625 174.479 37.875 174.812 37.125L181.062 43.4062C180.271 44.5312 179.354 45.5417 178.312 46.4375C177.292 47.3333 176.177 48.0938 174.969 48.7188C173.781 49.3438 172.521 49.8125 171.188 50.125C169.875 50.4583 168.521 50.625 167.125 50.625C164.771 50.625 162.552 50.1875 160.469 49.3125C158.406 48.4375 156.594 47.2188 155.031 45.6562C153.49 44.0938 152.271 42.2396 151.375 40.0938C150.479 37.9271 150.031 35.5521 150.031 32.9688C150.031 30.3229 150.479 27.9062 151.375 25.7188C152.271 23.5312 153.49 21.6667 155.031 20.125C156.594 18.5833 158.406 17.3854 160.469 16.5312C162.552 15.6771 164.771 15.25 167.125 15.25C168.521 15.25 169.885 15.4167 171.219 15.75C172.552 16.0833 173.812 16.5625 175 17.1875C176.208 17.8125 177.333 18.5833 178.375 19.5C179.417 20.3958 180.333 21.4062 181.125 22.5312L165.125 41.8125ZM169.5 24.2188C169.104 24.0729 168.708 23.9792 168.312 23.9375C167.938 23.8958 167.542 23.875 167.125 23.875C165.958 23.875 164.854 24.0938 163.812 24.5312C162.792 24.9479 161.896 25.5521 161.125 26.3438C160.375 27.1354 159.781 28.0938 159.344 29.2188C158.906 30.3229 158.688 31.5729 158.688 32.9688C158.688 33.2812 158.698 33.6354 158.719 34.0312C158.76 34.4271 158.812 34.8333 158.875 35.25C158.958 35.6458 159.052 36.0312 159.156 36.4062C159.26 36.7812 159.396 37.1146 159.562 37.4062L169.5 24.2188ZM196.281 50H187.75V25.0312H183.594V16.5312H187.75V14.9375C187.75 12.875 188.135 10.9375 188.906 9.125C189.698 7.3125 190.771 5.73958 192.125 4.40625C193.5 3.05208 195.094 1.98958 196.906 1.21875C198.719 0.427083 200.656 0.03125 202.719 0.03125H209.125V8.53125H202.719C201.802 8.53125 200.948 8.69792 200.156 9.03125C199.385 9.34375 198.708 9.79167 198.125 10.375C197.562 10.9375 197.115 11.6146 196.781 12.4062C196.448 13.1771 196.281 14.0208 196.281 14.9375V16.5312H206.75V25.0312H196.281V50Z" fill="#1B1B1F"/>
</svg>
